<svg width="23" height="20" viewBox="0 0 23 20" fill="none" xmlns="http://www.w3.org/2000/svg">
<path fill-rule="evenodd" clip-rule="evenodd" d="M15.2926 1.54944C14.8171 1.11529 14.1996 0.875 13.5593 0.875H10.0526C9.41249 0.875 8.7951 1.11517 8.31965 1.54911L7.63139 2.1773C7.16363 2.60423 6.55622 2.84052 5.92647 2.84052C3.06758 2.84052 0.75 5.18716 0.75 8.0819V14.6336C0.75 17.5284 3.06758 19.875 5.92647 19.875H17.5735C20.4324 19.875 22.75 17.5284 22.75 14.6336V8.0819C22.75 5.18716 20.4324 2.84052 17.5735 2.84052L17.3884 2.83282C16.8974 2.79189 16.4312 2.58904 16.0628 2.25267L15.2926 1.54944ZM10.0526 2.075H13.5593C13.8997 2.075 14.2287 2.20304 14.4835 2.43562L15.2537 3.13885C15.8168 3.65302 16.5321 3.9656 17.2887 4.02867L17.5237 4.03948C19.7663 4.04052 21.55 5.84658 21.55 8.0819V14.6336C21.55 16.8689 19.7663 18.675 17.5735 18.675H5.92647C3.7337 18.675 1.95 16.8689 1.95 14.6336V8.0819C1.95 5.91432 3.62723 4.15037 5.72829 4.04545L6.15806 4.0333C7.00389 3.98049 7.80922 3.63968 8.44035 3.06363L9.12862 2.43544C9.38332 2.20298 9.7123 2.075 10.0526 2.075ZM11.75 5.88C14.5114 5.88 16.75 8.11858 16.75 10.88C16.75 13.6414 14.5114 15.88 11.75 15.88C8.98858 15.88 6.75 13.6414 6.75 10.88C6.75 8.11858 8.98858 5.88 11.75 5.88ZM7.95 10.88C7.95 8.78132 9.65132 7.08 11.75 7.08C13.8487 7.08 15.55 8.78132 15.55 10.88C15.55 12.9787 13.8487 14.68 11.75 14.68C9.65132 14.68 7.95 12.9787 7.95 10.88Z" fill="#007AFF"/>
</svg>
