<svg width="26" height="22" viewBox="0 0 26 22" fill="none" xmlns="http://www.w3.org/2000/svg">
<path fill-rule="evenodd" clip-rule="evenodd" d="M14.8471 0C15.5893 0 16.305 0.275068 16.8562 0.772054L17.7489 1.57708C18.1759 1.96212 18.7163 2.19433 19.2854 2.24118L19.5 2.25C22.8137 2.25 25.5 4.93629 25.5 8.25V15.75C25.5 19.0637 22.8137 21.75 19.5 21.75H6C2.68629 21.75 0 19.0637 0 15.75V8.25C0 4.93629 2.68629 2.25 6 2.25C6.72994 2.25 7.43398 1.97952 7.97615 1.49079L8.77392 0.771682C9.325 0.274927 10.0406 0 10.7825 0H14.8471ZM12.75 5.25C15.9256 5.25 18.5 7.82436 18.5 11C18.5 14.1756 15.9256 16.75 12.75 16.75C9.57436 16.75 7 14.1756 7 11C7 7.82436 9.57436 5.25 12.75 5.25ZM8.2 11C8.2 8.4871 10.2371 6.45 12.75 6.45C15.2629 6.45 17.3 8.4871 17.3 11C17.3 13.5129 15.2629 15.55 12.75 15.55C10.2371 15.55 8.2 13.5129 8.2 11Z" fill="#007AFF"/>
</svg>
