<svg width="18" height="24" viewBox="0 0 18 24" fill="none" xmlns="http://www.w3.org/2000/svg">
<path fill-rule="evenodd" clip-rule="evenodd" d="M10.4 0.390991L11.01 0.398991L11.3117 0.399944L17.6 6.79693V21.0999C17.6 22.2597 16.6598 23.1999 15.5 23.1999H2.89999C1.74019 23.1999 0.799988 22.2597 0.799988 21.0999V2.49994C0.799988 1.34015 1.74019 0.399944 2.89999 0.399944L10.399 0.398991L10.4 0.390991ZM10.399 1.59899L2.89999 1.59994C2.40293 1.59994 1.99999 2.00289 1.99999 2.49994V21.0999C1.99999 21.597 2.40293 21.9999 2.89999 21.9999H15.5C15.997 21.9999 16.4 21.597 16.4 21.0999V7.63999L12.5 7.59994C11.3402 7.59994 10.4 6.65974 10.4 5.49994L10.399 1.59899ZM11.6 5.49994V2.40489L15.559 6.43192L12.5063 6.39998C12.0029 6.39994 11.6 5.997 11.6 5.49994Z" fill="#007AFF"/>
</svg>
