<svg width="22" height="27" viewBox="0 0 22 27" fill="none" xmlns="http://www.w3.org/2000/svg">
<path d="M0.2 1.5C0.2 0.78203 0.78203 0.2 1.5 0.2H15.4798C15.824 0.2 16.1542 0.336514 16.3979 0.579603L21.4181 5.58717C21.6626 5.83106 21.8 6.16222 21.8 6.50757V25.5C21.8 26.218 21.218 26.8 20.5 26.8H1.5C0.78203 26.8 0.2 26.218 0.2 25.5V1.5Z" fill="white" stroke="#D1D1D6" stroke-width="0.4"/>
<mask id="path-2-inside-1" fill="white">
<path fill-rule="evenodd" clip-rule="evenodd" d="M22 6.5H17C16.1716 6.5 15.5 5.82843 15.5 5V0.000136014C15.8899 0.00538346 16.2627 0.162278 16.5391 0.438003L21.5593 5.44557C21.8397 5.7252 21.998 6.10425 22 6.5Z"/>
</mask>
<path fill-rule="evenodd" clip-rule="evenodd" d="M22 6.5H17C16.1716 6.5 15.5 5.82843 15.5 5V0.000136014C15.8899 0.00538346 16.2627 0.162278 16.5391 0.438003L21.5593 5.44557C21.8397 5.7252 21.998 6.10425 22 6.5Z" fill="#EFEFEF"/>
<path d="M22 6.5V6.9H22.402L22.4 6.49798L22 6.5ZM15.5 0.000136014L15.5054 -0.399828L15.1 -0.405284V0.000136014H15.5ZM16.5391 0.438003L16.2566 0.721202V0.721202L16.5391 0.438003ZM21.5593 5.44557L21.2768 5.72877H21.2768L21.5593 5.44557ZM22 6.1H17V6.9H22V6.1ZM17 6.1C16.3925 6.1 15.9 5.60751 15.9 5H15.1C15.1 6.04934 15.9507 6.9 17 6.9V6.1ZM15.9 5V0.000136014H15.1V5H15.9ZM15.4946 0.4001C15.7805 0.403948 16.0539 0.519005 16.2566 0.721202L16.8216 0.154804C16.4715 -0.194449 15.9992 -0.393181 15.5054 -0.399828L15.4946 0.4001ZM16.2566 0.721202L21.2768 5.72877L21.8418 5.16237L16.8216 0.154804L16.2566 0.721202ZM21.2768 5.72877C21.4824 5.93383 21.5985 6.2118 21.6 6.50202L22.4 6.49798C22.3974 5.9967 22.1969 5.51657 21.8418 5.16237L21.2768 5.72877Z" fill="#D1D1D6" mask="url(#path-2-inside-1)"/>
<path d="M8.6 9.1V9.9H15.9V9.1H8.6Z" fill="#007AFF"/>
<path d="M6.1 18.1V18.9H13.4V18.1H6.1Z" fill="#007AFF"/>
<path d="M6.1 12.1V12.9H15.9V12.1H6.1Z" fill="#007AFF"/>
<path d="M6.1 15.1V15.9H15.9V15.1H6.1Z" fill="#007AFF"/>
</svg>
