<svg width="15" height="15" viewBox="0 0 15 15" fill="none" xmlns="http://www.w3.org/2000/svg">
<path fill-rule="evenodd" clip-rule="evenodd" d="M14.05 7.21804C15.3511 5.14465 15.0563 3.12731 13.4204 1.75464C11.7281 0.334634 9.20509 0.55537 7.78509 2.24767L7.49223 2.59573L7.1995 2.24767C5.7795 0.55537 3.25647 0.334634 1.56418 1.75464C-0.128123 3.17465 -0.105144 5.01499 1.07115 7.38997C1.85534 8.97329 3.9959 11.1825 7.49282 14.0175C10.9968 10.8668 13.1826 8.60031 14.05 7.21804ZM7.45469 12.4329L6.82888 11.9044C4.29825 9.73924 2.72937 8.03426 2.14648 6.85737C1.13003 4.80512 1.20436 3.62305 2.33552 2.67389C3.52013 1.67989 5.28625 1.8344 6.28025 3.01901L7.49204 4.45984L8.7033 3.02025C9.69835 1.8344 11.4645 1.67989 12.6491 2.67389C13.8379 3.67144 14.0059 5.03077 13.0335 6.58019C12.3572 7.65802 10.6936 9.43679 8.07573 11.8618L7.45469 12.4329Z" fill="white"/>
</svg>
