<svg width="11" height="20" viewBox="0 0 11 20" fill="none" xmlns="http://www.w3.org/2000/svg">
<path fill-rule="evenodd" clip-rule="evenodd" d="M5.35001 0.5C8.11143 0.5 10.35 2.73858 10.35 5.5C10.35 7.48013 9.19895 9.19142 7.52946 10.0013L7.64103 10.0004V18.1355C7.64103 18.2415 7.60731 18.3442 7.54582 18.429L7.49458 18.489L6.35234 19.6313C5.99229 19.9913 5.42587 20.0195 5.03355 19.7154L4.93931 19.6324L3.70857 18.4057C3.53693 18.2303 3.52063 17.9606 3.65777 17.7673L3.71638 17.6987L4.32592 17.1025C4.50126 16.9308 4.52355 16.6616 4.39086 16.4652L4.33384 16.3953L3.36377 15.4016C3.20347 15.2157 3.2041 14.9456 3.3531 14.7612L3.4159 14.6964L4.3027 13.9299C4.47626 13.7563 4.49555 13.4869 4.36055 13.292L4.3027 13.2228L3.50082 12.4209C3.4258 12.3459 3.37708 12.2495 3.3606 12.146L3.35437 12.0674L3.35444 10.0859C1.58617 9.31535 0.350006 7.55204 0.350006 5.5C0.350006 2.73858 2.58858 0.5 5.35001 0.5ZM5.37501 2.5C4.61561 2.5 4.00001 3.11561 4.00001 3.875C4.00001 4.63439 4.61561 5.25 5.37501 5.25C6.1344 5.25 6.75001 4.63439 6.75001 3.875C6.75001 3.11561 6.1344 2.5 5.37501 2.5Z" fill="white"/>
</svg>
