<svg width="15" height="19" viewBox="0 0 15 19" fill="none" xmlns="http://www.w3.org/2000/svg">
<path fill-rule="evenodd" clip-rule="evenodd" d="M14.7564 14.0839C14.7564 15.3048 13.8956 16.347 12.7144 16.5895L12.5513 16.6176C11.1597 16.8115 9.81977 16.4688 9.54819 15.4552C9.2766 14.4416 10.1208 13.4467 11.5078 13.0751C12.1061 12.9148 12.7144 12.947 13.2565 12.947L13.2556 5.22665L5.49959 7.38265L5.50001 16.0839C5.50001 17.3048 4.63916 18.347 3.45794 18.5895L3.29493 18.6176C1.9033 18.8115 0.563357 18.4688 0.291767 17.4552C0.0201778 16.4416 0.892766 15.44 2.27978 15.0684C2.87813 14.9081 3.45794 14.947 4.03445 14.947L4.00001 3.99999L4.03445 3.99942C4.12481 3.66445 4.3858 3.39275 4.73219 3.29646L13.4886 0.862437C14.0207 0.714526 14.572 1.02598 14.7199 1.55809C14.7441 1.6453 14.7564 1.73539 14.7564 1.82591V14.0839Z" fill="white"/>
</svg>
