<svg width="19" height="19" viewBox="0 0 19 19" fill="none" xmlns="http://www.w3.org/2000/svg">
<path fill-rule="evenodd" clip-rule="evenodd" d="M18.75 4C18.75 1.92893 17.0711 0.25 15 0.25C12.9289 0.25 11.25 1.92893 11.25 4C11.25 6.07107 12.9289 7.75 15 7.75C17.0711 7.75 18.75 6.07107 18.75 4ZM10 2.75H4.25L4.05036 2.7549C1.93397 2.85892 0.25 4.6078 0.25 6.75V14.75L0.254895 14.9496C0.358921 17.066 2.1078 18.75 4.25 18.75H12.25L12.4496 18.7451C14.566 18.6411 16.25 16.8922 16.25 14.75V9H15.25V14.75L15.2449 14.9263C15.1537 16.5011 13.8477 17.75 12.25 17.75H4.25L4.07373 17.7449C2.49892 17.6537 1.25 16.3477 1.25 14.75V6.75L1.25509 6.57373C1.34634 4.99892 2.65232 3.75 4.25 3.75H10V2.75Z" fill="white"/>
</svg>
