<svg width="24" height="25" viewBox="0 0 24 25" fill="none" xmlns="http://www.w3.org/2000/svg">
<path fill-rule="evenodd" clip-rule="evenodd" d="M12 0.5C18.6274 0.5 24 4.97715 24 10.5C24 20.6196 14.3931 16.029 13.0732 18.6029C12.2601 20.2573 16.386 24.1102 12 24.1102C2.97964 24.1102 0 16.0228 0 10.5C0 4.97715 5.37258 0.5 12 0.5ZM5 8C3.89543 8 3 8.89543 3 10C3 11.1046 3.89543 12 5 12C6.10457 12 7 11.1046 7 10C7 8.89543 6.10457 8 5 8ZM19 8C17.8954 8 17 8.89543 17 10C17 11.1046 17.8954 12 19 12C20.1046 12 21 11.1046 21 10C21 8.89543 20.1046 8 19 8ZM9 3C7.89543 3 7 3.89543 7 5C7 6.10457 7.89543 7 9 7C10.1046 7 11 6.10457 11 5C11 3.89543 10.1046 3 9 3ZM15 3C13.8954 3 13 3.89543 13 5C13 6.10457 13.8954 7 15 7C16.1046 7 17 6.10457 17 5C17 3.89543 16.1046 3 15 3Z" fill="white"/>
</svg>
