<svg width="24" height="24" viewBox="0 0 24 24" fill="none" xmlns="http://www.w3.org/2000/svg">
<path fill-rule="evenodd" clip-rule="evenodd" d="M22.38 21.7504C22.6059 21.5438 22.7999 21.3048 22.9558 21.0414C23.8277 19.5679 23.3399 17.6666 21.8664 16.7948L18.5578 14.8372L18.3933 14.7476C17.6143 14.3594 16.6873 14.3854 15.9276 14.8268L14.8967 15.4258L14.7769 15.4879C14.2495 15.7301 13.6203 15.6223 13.2033 15.2053L9.12435 11.1263L9.03362 11.0264C8.66443 10.5787 8.60753 9.94287 8.90381 9.43298L9.50284 8.40203C9.9758 7.58807 9.97182 6.58203 9.49245 5.77183L7.53483 2.46321C6.66302 0.989717 4.76176 0.501968 3.28827 1.37379C3.0248 1.52968 2.78587 1.72374 2.57926 1.94965C1.10883 3.55746 0.450612 5.08828 0.66705 6.53986C1.11061 9.51463 3.20202 12.9124 6.91773 16.77L7.24042 17.0888L7.55965 17.4119L7.56595 17.4073C11.4172 21.1276 14.815 23.219 17.7898 23.6626C19.2413 23.879 20.7722 23.2208 22.38 21.7504ZM21.5701 20.8649C20.1895 22.1275 18.9952 22.629 17.9667 22.4757C15.3822 22.0903 12.3066 20.2444 8.75629 16.8852L8.17126 16.3235L7.76109 15.9163C4.20759 12.2266 2.25186 9.03171 1.85393 6.36289C1.70058 5.33445 2.20212 4.14013 3.46478 2.7595C3.59141 2.62104 3.73785 2.5021 3.89933 2.40656C4.80244 1.87221 5.96772 2.17116 6.50206 3.07427L8.45968 6.38289C8.71781 6.81915 8.71995 7.36086 8.46528 7.79915L7.86625 8.8301C7.31892 9.77205 7.41784 10.9531 8.10775 11.7898L8.23619 11.9332L12.3548 16.0538C13.1252 16.8241 14.2921 17.031 15.2777 16.5785L15.4492 16.491L16.5305 15.8644C16.9382 15.6275 17.4374 15.612 17.858 15.8216L17.9842 15.8912L21.2554 17.8276C22.1585 18.3619 22.4574 19.5272 21.9231 20.4303C21.8275 20.5918 21.7086 20.7382 21.5701 20.8649Z" fill="#545458" fill-opacity="0.65"/>
</svg>
