<svg width="25" height="21" viewBox="0 0 25 21" fill="none" xmlns="http://www.w3.org/2000/svg">
<path fill-rule="evenodd" clip-rule="evenodd" d="M24.3 5.00002C24.3 2.73566 22.4644 0.900024 20.2 0.900024H4.99999C2.73563 0.900024 0.899994 2.73566 0.899994 5.00002V16.2C0.899994 18.4644 2.73563 20.3 4.99999 20.3H20.2C22.4644 20.3 24.3 18.4644 24.3 16.2V5.00002ZM18.0034 11.9741L18.0963 11.893C18.4204 11.6471 18.8768 11.6473 19.2024 11.908L23.099 15.029L23.1 16.2C23.1 17.8017 21.8016 19.1 20.2 19.1L5.57499 19.099L9.65642 15.0182L9.74254 14.9424C10.0718 14.6875 10.5406 14.69 10.8684 14.9628L12.3601 16.2038L12.4644 16.2808C12.8946 16.5608 13.4703 16.5072 13.8414 16.136L18.0034 11.9741ZM20.2 2.10002H4.99999C3.39837 2.10002 2.09999 3.3984 2.09999 5.00002V16.2C2.09999 17.4655 2.9105 18.5416 4.0407 18.9376L8.80789 14.1697C9.5328 13.4448 10.6667 13.3545 11.4934 13.9315L11.6359 14.0403L13.0574 15.223L12.9929 15.2875C13.0295 15.251 13.0878 15.2483 13.1276 15.2814L13.0574 15.223L17.1548 11.1256C17.8697 10.4107 18.9844 10.3117 19.8099 10.8666L19.9525 10.9713L23.099 13.491L23.1 5.00002C23.1 3.3984 21.8016 2.10002 20.2 2.10002ZM8.09999 5.20002C9.59116 5.20002 10.8 6.40886 10.8 7.90002C10.8 9.39119 9.59116 10.6 8.09999 10.6C6.60883 10.6 5.39999 9.39119 5.39999 7.90002C5.39999 6.40886 6.60883 5.20002 8.09999 5.20002ZM6.59999 7.90002C6.59999 7.0716 7.27157 6.40002 8.09999 6.40002C8.92842 6.40002 9.59999 7.0716 9.59999 7.90002C9.59999 8.72845 8.92842 9.40002 8.09999 9.40002C7.27157 9.40002 6.59999 8.72845 6.59999 7.90002Z" fill="#007AFF"/>
</svg>
