<svg width="17" height="16" viewBox="0 0 17 16" fill="none" xmlns="http://www.w3.org/2000/svg">
<path fill-rule="evenodd" clip-rule="evenodd" d="M13 0C14.933 0 16.5 1.567 16.5 3.5V12.5C16.5 14.433 14.933 16 13 16H4C2.067 16 0.5 14.433 0.5 12.5V3.5C0.5 1.567 2.067 0 4 0H13ZM13 1H4C2.61929 1 1.5 2.11929 1.5 3.5V12.5C1.5 12.5847 1.50422 12.6685 1.51245 12.751L5.34165 8.92311C5.73217 8.53258 6.36534 8.53258 6.75586 8.92311L7.97836 10.1456L11.476 6.64798C11.8665 6.25745 12.4997 6.25745 12.8902 6.64798L15.5 9.258V3.5C15.5 2.11929 14.3807 1 13 1ZM8.5 5C8.5 3.89543 7.60457 3 6.5 3C5.39543 3 4.5 3.89543 4.5 5C4.5 6.10457 5.39543 7 6.5 7C7.60457 7 8.5 6.10457 8.5 5Z" fill="white"/>
</svg>
