<svg width="15" height="19" viewBox="0 0 15 19" fill="none" xmlns="http://www.w3.org/2000/svg">
<path fill-rule="evenodd" clip-rule="evenodd" d="M8.09217 0.502677C8.04567 0.21759 7.79826 0 7.50002 0C7.16865 0 6.90002 0.268629 6.90002 0.6L6.89902 10.468L5.23068 8.79895L5.14759 8.72953C4.91375 8.56753 4.59044 8.59068 4.38216 8.79895C4.14784 9.03327 4.14784 9.41317 4.38216 9.64748L7.07576 12.3411L7.15886 12.4105C7.3927 12.5725 7.71601 12.5494 7.92429 12.3411L10.6179 9.64748L10.6873 9.56439C10.8493 9.33054 10.8262 9.00723 10.6179 8.79895L10.5348 8.72953C10.301 8.56753 9.97764 8.59068 9.76937 8.79895L8.09902 10.468L8.10002 0.6L8.09217 0.502677ZM4.60002 4.35C4.60002 4.01863 4.3314 3.75 4.00002 3.75H1.75002L1.60439 3.75654C0.788986 3.83011 0.150024 4.51544 0.150024 5.35V17.1L0.156563 17.2456C0.230135 18.061 0.915461 18.7 1.75002 18.7H13.25L13.3957 18.6935C14.2111 18.6199 14.85 17.9346 14.85 17.1V5.35L14.8435 5.20437C14.7699 4.38896 14.0846 3.75 13.25 3.75H11L10.9027 3.75785C10.6176 3.80435 10.4 4.05177 10.4 4.35C10.4 4.68137 10.6687 4.95 11 4.95H13.25L13.3306 4.95813C13.5129 4.99543 13.65 5.1567 13.65 5.35V17.1L13.6419 17.1806C13.6046 17.3629 13.4433 17.5 13.25 17.5H1.75002L1.66941 17.4919C1.48714 17.4546 1.35002 17.2933 1.35002 17.1V5.35L1.35815 5.26939C1.39545 5.08711 1.55672 4.95 1.75002 4.95H4.00002L4.09735 4.94215C4.38243 4.89565 4.60002 4.64823 4.60002 4.35Z" fill="white"/>
</svg>
