<svg width="17" height="18" viewBox="0 0 17 18" fill="none" xmlns="http://www.w3.org/2000/svg">
<path fill-rule="evenodd" clip-rule="evenodd" d="M13.5 7.25C13.5 3.52208 10.4779 0.5 6.75 0.5C3.02208 0.5 0 3.52208 0 7.25C0 10.9779 3.02208 14 6.75 14C8.16263 14 9.4739 13.5661 10.5578 12.8242L14.7123 16.9801L14.8138 17.0712C15.3046 17.4661 16.0245 17.4357 16.4801 16.9801C16.9682 16.4919 16.9682 15.7005 16.4801 15.2123L12.3242 11.0578C13.0661 9.9739 13.5 8.66263 13.5 7.25ZM2 7.25C2 4.62665 4.12665 2.5 6.75 2.5C9.37335 2.5 11.5 4.62665 11.5 7.25C11.5 9.87335 9.37335 12 6.75 12C4.12665 12 2 9.87335 2 7.25Z" fill="white"/>
</svg>
