<svg width="24" height="24" viewBox="0 0 24 24" fill="none" xmlns="http://www.w3.org/2000/svg">
<path fill-rule="evenodd" clip-rule="evenodd" d="M12.25 0C18.7393 0 24 5.26065 24 11.75C24 18.2393 18.7393 23.5 12.25 23.5C5.76065 23.5 0.5 18.2393 0.5 11.75C0.5 5.26065 5.76065 0 12.25 0ZM12.25 1.2C6.4234 1.2 1.7 5.9234 1.7 11.75C1.7 14.8046 2.99816 17.556 5.07288 19.4826L8.30921 18.5806C9.80101 18.0889 9.51703 15.5576 9.51123 15.524C8.69369 15.0503 8.69369 13.8125 8.55456 13.6343L8.46511 13.5255L8.25236 13.2831C8.10387 13.1174 7.98431 12.9285 7.89829 12.7241L7.84013 12.5681L7.79591 12.4366C7.73106 12.2487 7.64278 12.0108 7.53107 11.7229C7.13165 10.6938 7.92654 10.6427 7.9305 10.6258C7.74792 10.3283 7.73782 8.75593 7.73782 8.75282C7.73782 6.36824 9.06469 5.07544 11.7184 4.87442L11.879 4.86438L11.8794 4.85838L11.929 4.86138L11.9794 4.85838L11.979 4.86438L12.1403 4.87442C14.7085 5.06896 16.034 6.28597 16.1168 8.52547L16.1203 8.81445L16.1112 9.18451L16.0901 9.62741C16.0641 10.0441 16.0161 10.4826 15.9283 10.6258L16.0485 10.6596L16.1321 10.6937C16.3376 10.7934 16.5898 11.0476 16.3277 11.7229L16.1519 12.1871L16.0629 12.4366L16.0186 12.5681C15.9324 12.8325 15.792 13.076 15.6064 13.2831L15.3937 13.5255L15.3042 13.6343C15.1651 13.8125 15.1651 15.0503 14.3475 15.524L14.3347 15.6686C14.2972 16.217 14.2635 18.1567 15.5496 18.5806L19.3086 19.5909C21.4523 17.6599 22.8 14.8623 22.8 11.75C22.8 5.9234 18.0766 1.2 12.25 1.2Z" fill="#007AFF"/>
</svg>
