<svg width="20" height="17" viewBox="0 0 20 17" fill="none" xmlns="http://www.w3.org/2000/svg">
<path fill-rule="evenodd" clip-rule="evenodd" d="M9.90687 1.18098C9.96744 1.26578 10 1.36738 10 1.4716V16.0284C10 16.3045 9.77614 16.5284 9.5 16.5284C9.39579 16.5284 9.29418 16.4958 9.20938 16.4353L3 12H1C0.447715 12 0 11.5523 0 11V6.5C0 5.94772 0.447715 5.5 1 5.5H3L9.20938 1.06473C9.43409 0.904224 9.74636 0.95627 9.90687 1.18098ZM16.2548 0.889339C16.454 0.698083 16.7706 0.704514 16.9618 0.903702C18.8814 2.90288 19.9 5.49069 19.9 8.32822C19.9 11.0113 18.8519 13.5521 16.967 15.5895C16.7795 15.7922 16.4632 15.8046 16.2605 15.617C16.0578 15.4295 16.0454 15.1132 16.233 14.9105C17.951 13.0533 18.9 10.7528 18.9 8.32822C18.9 5.74623 17.9793 3.40726 16.2405 1.5963C16.0492 1.39711 16.0557 1.08059 16.2548 0.889339ZM13.9545 2.88934C14.1537 2.69808 14.4702 2.70451 14.6615 2.9037C16.0584 4.35858 16.8 6.24256 16.8 8.30587C16.8 10.2593 16.0372 12.1085 14.667 13.5895C14.4795 13.7922 14.1632 13.8046 13.9605 13.617C13.7578 13.4295 13.7454 13.1132 13.933 12.9105C15.1363 11.6097 15.8 10.0008 15.8 8.30587C15.8 6.4981 15.1564 4.86296 13.9402 3.5963C13.7489 3.39711 13.7553 3.08059 13.9545 2.88934ZM11.9502 4.61648C12.162 4.43931 12.4773 4.46739 12.6545 4.67921C13.4717 5.65622 13.903 6.91394 13.903 8.28632C13.903 9.58722 13.4594 10.8216 12.6598 11.8137C12.4866 12.0288 12.1718 12.0626 11.9568 11.8893C11.7418 11.716 11.7079 11.4013 11.8812 11.1863C12.5388 10.3703 12.903 9.35683 12.903 8.28632C12.903 7.14249 12.5499 6.11278 11.8875 5.3208C11.7103 5.10898 11.7384 4.79365 11.9502 4.61648Z" fill="white"/>
</svg>
