<svg width="21" height="21" viewBox="0 0 21 21" fill="none" xmlns="http://www.w3.org/2000/svg">
<path fill-rule="evenodd" clip-rule="evenodd" d="M17.5861 2.91951C15.706 1.03785 13.2057 0.00105762 10.5417 0C5.05293 0 0.585694 4.46552 0.583497 9.95439C0.582792 11.7089 1.04134 13.4216 1.91276 14.9312L0.5 20.0899L5.77899 18.7056C7.23351 19.4986 8.87108 19.9166 10.5378 19.9173H10.5419C16.0301 19.9173 20.4978 15.4512 20.5 9.96231C20.5011 7.30235 19.4662 4.80117 17.5861 2.91951ZM10.5419 18.236H10.5385C9.05329 18.2354 7.5966 17.8366 6.32581 17.0827L6.02355 16.9034L2.89092 17.7248L3.72708 14.6715L3.53023 14.3585C2.70171 13.0411 2.26413 11.5184 2.26478 9.95504C2.26657 5.39295 5.97959 1.68134 10.5451 1.68134C12.7558 1.68218 14.8339 2.544 16.3966 4.10794C17.9593 5.67188 18.8194 7.7508 18.8186 9.96168C18.8168 14.5242 15.1039 18.236 10.5419 18.236ZM13.3816 11.2297C13.6097 11.3127 14.833 11.9145 15.0819 12.039C15.1304 12.0633 15.1758 12.0852 15.2179 12.1056C15.3915 12.1894 15.5087 12.2461 15.5588 12.3296C15.621 12.4333 15.621 12.9313 15.4136 13.5124C15.2062 14.0934 14.2122 14.6238 13.7341 14.6952C13.3054 14.7592 12.7629 14.7859 12.1669 14.5966C11.8055 14.482 11.3421 14.3289 10.7484 14.0726C8.41618 13.0659 6.83996 10.8063 6.5416 10.3786C6.52064 10.3486 6.50599 10.3276 6.49782 10.3167L6.49581 10.314C6.36414 10.1384 5.48183 8.9615 5.48183 7.74356C5.48183 6.59776 6.04483 5.9972 6.30397 5.72077C6.32173 5.70183 6.33806 5.68441 6.35268 5.66844C6.58075 5.41941 6.85033 5.35718 7.01619 5.35718C7.18204 5.35718 7.34809 5.35869 7.49306 5.36591C7.51093 5.3668 7.52951 5.36669 7.54872 5.36657C7.69374 5.36571 7.87459 5.36463 8.05292 5.79294C8.12155 5.95778 8.22198 6.2022 8.32791 6.45996C8.542 6.98097 8.7785 7.55652 8.8201 7.63981C8.88231 7.76431 8.9238 7.90958 8.84084 8.0756C8.82847 8.10037 8.81702 8.12376 8.80607 8.1461C8.74369 8.2735 8.69786 8.36707 8.59203 8.49062C8.55052 8.53909 8.50761 8.59132 8.4647 8.64356C8.37903 8.74786 8.29337 8.85214 8.2188 8.92638C8.09425 9.05042 7.96454 9.18501 8.10968 9.43404C8.25482 9.68309 8.75423 10.4977 9.49388 11.1572C10.289 11.8662 10.9801 12.1659 11.3304 12.3178C11.3988 12.3474 11.4542 12.3715 11.4948 12.3918C11.7436 12.5163 11.8888 12.4956 12.0339 12.3295C12.1791 12.1636 12.656 11.6033 12.8218 11.3543C12.9877 11.1052 13.1536 11.1467 13.3816 11.2297Z" fill="white"/>
</svg>
